<?xml version="1.0" standalone="no"?><!DOCTYPE svg PUBLIC "-//W3C//DTD SVG 1.1//EN" "http://www.w3.org/Graphics/SVG/1.1/DTD/svg11.dtd"><svg t="1720722177333" class="icon" viewBox="0 0 1024 1024" version="1.1" xmlns="http://www.w3.org/2000/svg" p-id="3238" data-spm-anchor-id="a313x.search_index.0.i0.79773a81CQEkYK" xmlns:xlink="http://www.w3.org/1999/xlink" width="200" height="200"><path d="M102.4 51.2c56.32 0 102.4 46.08 102.4 102.4v563.2c0 56.32 46.08 102.4 102.4 102.4s102.4-46.08 102.4-102.4-46.08-102.4-102.4-102.4c-10.24 0-15.36 0-25.6 5.12v-204.8c10.24-5.12 15.36-5.12 25.6-5.12 168.96 0 307.2 138.24 307.2 307.2s-138.24 307.2-307.2 307.2-307.2-138.24-307.2-307.2V153.6c0-56.32 46.08-102.4 102.4-102.4z m358.4-51.2c312.32 0 563.2 250.88 563.2 563.2 0 30.72-5.12 66.56-10.24 97.28-5.12 25.6-30.72 46.08-61.44 40.96-25.6-5.12-46.08-30.72-40.96-61.44 10.24-25.6 10.24-51.2 10.24-76.8 0-256-204.8-460.8-460.8-460.8-30.72 0-51.2-20.48-51.2-51.2s20.48-51.2 51.2-51.2z m0 204.8c199.68 0 358.4 158.72 358.4 358.4 0 20.48 0 40.96-5.12 66.56s-30.72 46.08-61.44 40.96-46.08-30.72-40.96-61.44c5.12-15.36 5.12-30.72 5.12-46.08 0-143.36-112.64-256-256-256-30.72 0-51.2-20.48-51.2-51.2s20.48-51.2 51.2-51.2z" fill="#2c2c2c" p-id="3239" data-spm-anchor-id="a313x.search_index.0.i1.79773a81CQEkYK" class="selected"></path></svg>